<svg id="Layer_1_Image" data-name="Layer 1 Image" xmlns="http://www.w3.org/2000/svg" viewBox="0 0 136.46 138.37"><defs><style>.cls-1{fill:#1d1d1b;}</style></defs><title>logo</title><path d="M130.71.5c-1.39,2.58-2.72,5.07-4.06,7.55-.38.7-.84,1.36-1.19,2.07a16.75,16.75,0,0,1-7.08,7.43c-4.89,2.72-9.87,5.32-15,7.63-3.5,1.59-7.24,2.66-10.89,3.9s-7.08,2.4-10.66,3.48c-2.2.66-4.47,1.07-6.71,1.63-2.9.72-5.81,1.42-8.68,2.23-3.22.9-6.37,2.11-9.62,2.84-5,1.12-9.45,3.57-14.12,5.43-2.84,1.13-5.27,3.26-7.92,4.89a51.69,51.69,0,0,0-11.77,9.93,101,101,0,0,0-6.22,8.28,23.45,23.45,0,0,0-3.08,5.07,70.15,70.15,0,0,0-2.57,8.93,45,45,0,0,0-.5,5.22c-.34,3.09.58,5.89,1.7,8.7a14,14,0,0,0,3.17,5c1.11,1.09,2,2.37,3.08,3.5a18.69,18.69,0,0,0,8,5.08c1.77.58,3.43,1.5,5.2,2.09s3.32.83,5,1.22a54.3,54.3,0,0,0,16.67.92,24.51,24.51,0,0,0,7.79-2.11,75.1,75.1,0,0,0,10.13-5.5A47.1,47.1,0,0,0,82,96.85a55.91,55.91,0,0,0,6.22-8.61,4.23,4.23,0,0,1,3.66-2.5c2.27,0,4.53-.29,6.8-.37a4.35,4.35,0,0,1,1.47.5,5.84,5.84,0,0,1-.56,1.33,51.12,51.12,0,0,1-4.05,5.49C92.43,96,89.16,99.1,86,102.3c-.83.84-1.63,1.73-2.41,2.62a24.22,24.22,0,0,1-6.21,5.56c-2,1.09-4,2.08-6,3.17-2.24,1.24-4.39,2.64-6.67,3.78A25.57,25.57,0,0,1,61,118.5c-2.39.75-4.73,1.65-7.15,2.28a49.64,49.64,0,0,1-5.17.81,9.58,9.58,0,0,0-1.53.25,13.38,13.38,0,0,1-7.07.33,3,3,0,0,0-.6,0,15.54,15.54,0,0,1-5.87-.83c-1.88-.71-4-.9-5.89-1.48s-3.83-1.29-5.7-2-3.77-1.66-5.62-2.56a10.52,10.52,0,0,1-2.29-1.5,68.43,68.43,0,0,1-6.83-6.33C5,104.72,2.47,102,1.62,98.5S-.1,91.29.41,87.6c.38-2.74,1-5.44,1.63-8.14,1-4.86,4-8.76,6.46-12.94a3.65,3.65,0,0,1,.5-.67c4.07-4.18,8.11-8.39,12.23-12.51a26,26,0,0,1,3.38-2.45c4.12-2.94,8.14-6,12.71-8.26,1.82-.89,3.76-1.54,5.63-2.32a95.7,95.7,0,0,1,9-3.73c5.84-1.75,11.8-3.09,17.67-4.72q7.47-2.07,14.87-4.44a104.21,104.21,0,0,0,10.81-3.83c4.46-2,8.77-4.33,13.09-6.63,4.88-2.6,7.6-7,9.61-12a28.41,28.41,0,0,0,.86-4c.07-.28.47-.68.72-.68,3.52,0,7,0,10.55,0A2.1,2.1,0,0,1,130.71.5Z" transform="translate(-0.26 -0.32)"/><path d="M82,87.36c-1.09,1.18-1.93,2.17-2.84,3.07a39.59,39.59,0,0,1-7.47,6.32c-5.14,3-10.47,5.45-16.66,5.07-2.12-.13-3.86-1.16-5.65-2.16a4,4,0,0,0-2.56-.59c-2.56.53-5,1.49-7.6,2-3.5.64-7.16,1.22-10.39-.72A14.66,14.66,0,0,1,24.41,96c-1.27-1.86-.67-3.92.64-5.69a13.46,13.46,0,0,1,5.39-4.06,25.78,25.78,0,0,1,5.58-2c2.09-.41,4.28-.27,6.41-.47,3-.28,5.5,1.14,8.11,2.16,1,.38,1.58.38,2.19-.36,1.46-1.74,3-3.47,4.34-5.26,1.91-2.46,3.74-5,5.58-7.48a9.12,9.12,0,0,0,.68-1.43l-8.1-1.71c-.31-.07-.71,0-.91-.2-1.32-1.18-2.64-.44-4,0a1,1,0,0,0-.65,1.42A22.15,22.15,0,0,0,51,73.58c1.06,1.84.51,2.91-1.64,2.91-3.56,0-7.11-.06-10.67-.07-.82,0-.93-.38-1-1.12a14.44,14.44,0,0,1,3-9.11c.52-.75.92-1.57,1.47-2.3,3-4,9.85-4.65,14.08-2.16.85.5,1.54,1.3,2.41,1.75A44.87,44.87,0,0,0,64,66c1.49.54,4-1,5.19-2.79,1.82-2.66,3.74-5.26,5.66-7.85a1.78,1.78,0,0,1,1.2-.61,61.69,61.69,0,0,1,6.23-.13,13.57,13.57,0,0,1,3.82.81c1.61.57,1.71,1.19.55,2.41C83.09,61.56,79.4,65.22,76,69.1c-3,3.34-5.6,7-8.47,10.38-2.34,2.78-4.81,5.44-7.22,8.16-1,1.1-2,2.19-2.94,3.32s-.76,2,.32,3.35c1.8,2.27,4.62,2.79,6.5,1.08,1.59-1.45,3.29-2.78,4.93-4.16.73-.61,1.48-1.21,2.18-1.86a2.72,2.72,0,0,0,.92-1.19c.2-1,.8-1,1.57-1,1.79-.05,3.57-.25,5.35-.28A16.23,16.23,0,0,1,82,87.36ZM35.81,89.7l-.12-.29a8.28,8.28,0,0,0-1.42,1,1.88,1.88,0,0,0,0,2.34c1.15,2.14,3.31,2.78,5.38,3.47,1.46.49,2.47-.61,3.55-1.33a1.24,1.24,0,0,0,.13-2.18C41.05,91.15,38.81,89.49,35.81,89.7Z" transform="translate(-0.26 -0.32)"/><path d="M116.89,85.86a20.1,20.1,0,0,1-1.66,2.47c-2.44,2.69-5,5.3-7.43,8a5.27,5.27,0,0,0-1.67,3.71,1.41,1.41,0,0,0,1.33,1.63,8.78,8.78,0,0,0,5-.68c1.71-.75,3.4-1.53,5.12-2.26,2.11-.9,3.5-2.61,4.86-4.34,1.73-2.19,3.35-4.46,5.06-6.68a4.71,4.71,0,0,1,3.84-1.88,48.73,48.73,0,0,1,5.35.16c-5.59,7.85-11.33,15.54-17.33,23.05l.38.54,4.55-1c1.78-.4,3.6-.69,5.32-1.26a8.74,8.74,0,0,1,4.38-.75l.94.13a5.7,5.7,0,0,1-2.81,2.56c-2.86,1.18-5.69,2.43-8.58,3.55a29.68,29.68,0,0,1-4.8,1.41c-3.53.72-6.14,2.74-8.52,5.34-2.56,2.8-5.24,5.5-8.06,8-2.12,1.91-4.52,3.5-6.8,5.22a11.72,11.72,0,0,1-2.16,1.46c-3.12,1.36-6.25,2.73-9.44,3.92a9.68,9.68,0,0,1-10.8-3.4,6.11,6.11,0,0,1,.12-7.16,19.9,19.9,0,0,1,8.62-7.17c2.27-.93,4.34-2.54,6.68-3.07,2.53-.58,4.81-2.07,7.56-1.93,1,0,2-.73,3-1.07a10.48,10.48,0,0,1,1.4-.23c.8-.16,1.59-.33,2.39-.51a6,6,0,0,1,1.73-.41c2.77.32,4.31-1.5,5.9-3.25.75-.82,1.42-1.72,2.13-2.57.2-.25.5-.44.62-.72a11.09,11.09,0,0,0,.45-1.52,10.27,10.27,0,0,0-1.47.07c-3.43.65-6.66,2.14-10.28,2a5.36,5.36,0,0,1-5-7.61,24.74,24.74,0,0,1,4.18-6.36,69.63,69.63,0,0,0,4.49-5.74,3.6,3.6,0,0,1,3.15-1.74c2.61,0,5.22-.29,7.83-.45A3.19,3.19,0,0,1,116.89,85.86ZM86,132.37c3.21.3,5.27-1.69,7.23-3.45,2.66-2.39,5-5.15,7.45-7.77a6.88,6.88,0,0,0,.73-1.16,5.71,5.71,0,0,0-1.4-.41,16,16,0,0,0-5.25.86c-1.92.61-4,.79-5.93,1.28A25.69,25.69,0,0,0,85.32,123a14.48,14.48,0,0,0-2.58,1.21,4.3,4.3,0,0,0-.63,7A5.21,5.21,0,0,0,86,132.37Z" transform="translate(-0.26 -0.32)"/><path class="cls-1" d="M35.81,89.7c3-.21,5.24,1.45,7.47,3.06a1.24,1.24,0,0,1-.13,2.18c-1.08.71-2.09,1.81-3.55,1.33-2.07-.69-4.23-1.33-5.38-3.47a1.89,1.89,0,0,1,0-2.34,9.49,9.49,0,0,1,1.42-1A1.92,1.92,0,0,1,35.81,89.7Z" transform="translate(-0.26 -0.32)"/><path class="cls-1" d="M86,132.37a5.28,5.28,0,0,1-3.85-1.19,4.3,4.3,0,0,1,.63-7A13.53,13.53,0,0,1,85.31,123a26.21,26.21,0,0,1,3.46-1.28c2-.49,4-.67,5.93-1.28a16,16,0,0,1,5.25-.86,5.71,5.71,0,0,1,1.4.41,6.88,6.88,0,0,1-.73,1.16c-2.45,2.62-4.78,5.38-7.45,7.77C91.22,130.68,89.16,132.67,86,132.37Z" transform="translate(-0.26 -0.32)"/></svg>