<svg id="Layer_1" data-name="Layer 1" xmlns="http://www.w3.org/2000/svg" viewBox="0 0 160.51 150.58"><defs><style>.cls-1{fill:#1d1d1b;}</style></defs><title>ozy</title><path class="cls-1" d="M210.8,56.78v-.09c0-9.37-17.61-17-33.6-17s-32.15,7.64-32.15,17v.09c0,9.38,16.17,17,32.15,17S210.8,66.16,210.8,56.78Zm-46.72,0c0-8.37,4.37-13.33,13.27-13.33s13.26,5,13.26,13.33-4.37,13.15-13.26,13.15S164.08,65.1,164.08,56.74Z" transform="translate(-96.9 -39.68)"/><path d="M257.41,136.89c-.05,33.87-21.67,25.37-60.16,22.86-5.13-.35-10.94-.38-14.13,2.26,0,0-4.47,2.69-2.69,7.69,2.69,7.56,6.37,10.74,6.54,14.4.13,3-2.25,5.76-9,6.13l-.71,0h-.12l-.73,0c-6.78-.37-9.16-3.16-9-6.13.16-3.66,3.83-6.84,6.53-14.4,1.78-5-2.7-7.69-2.7-7.69-3.12-2.62-9-2.61-14.12-2.26-38.48,2.51-60.09,11-60.16-22.85h0c0-3.19,1.85-5.75,4.82-5.79,0,0,3.63-.46,4.94,2.66a10.22,10.22,0,0,1,.81,3c0,33.9,21.42,13.22,68.91,12.78h1.55c47.49.44,68.91,20.83,68.91-12.78a10.22,10.22,0,0,1,.81-3c1.31-3.12,4.89-2.66,4.94-2.66C255.56,131.14,257.41,133.7,257.41,136.89Z" transform="translate(-96.9 -39.68)"/><path d="M177.1,190.26h-.73v0Z" transform="translate(-96.9 -39.68)"/><path d="M176.62,149.48h0Z" transform="translate(-96.9 -39.68)"/><path d="M177.93,149.48h0Z" transform="translate(-96.9 -39.68)"/><path d="M177.93,190.23v0h-.71Z" transform="translate(-96.9 -39.68)"/><path class="cls-1" d="M151.28,126.06c8.2,2.72,21.09,2.9,26.65,2.9,11.85,0,35.38-2.61,47.38-3.87,6.49-.68,11.84,3.41,11.84,7.61s-5.33,8.15-11.84,7.6c-12.26-1.05-31.27-4.65-47.38-4.75-15.27-.09-35.31,3.71-47.38,4.75-6.51.55-11.85-3.41-11.85-7.6v-2.82c0-3,2.8-5.77,7.13-7l46.52-13h.29l32.53-9.07c2.77-.77,2.14-3.61-.59-4.52-8.2-2.72-21.09-2.9-26.65-2.9-11.85,0-35.38,2.61-47.38,3.87-6.49.68-11.85-3.41-11.85-7.61s5.34-8.15,11.85-7.6c12.26,1.05,31.27,4.65,47.38,4.75,15.27.09,35.31-3.71,47.38-4.75,6.51-.55,11.84,3.41,11.84,7.6v2.82c0,3-2.8,5.77-7.12,7l-46.52,13h-.28l-32.55,9.08C147.92,122.31,148.55,125.15,151.28,126.06Z" transform="translate(-96.9 -39.68)"/></svg>